<svg xmlns="http://www.w3.org/2000/svg" width="18" height="15"><path fill="#bdbdbd" d="M17.726 3.662l.001.001-2.475 5.5a.825.825 0 0 1-.697.484l-7.128.475.412 1.177h7.76a1.65 1.65 0 1 1-1.65 1.65h-7.7A1.65 1.65 0 1 1 4.6 11.3h1.492L2.914 2.224h-1.89a.825.825 0 0 1 0-1.65H3.5a.82.82 0 0 1 .775.554l.003-.001.48 1.373h12.217a.825.825 0 0 1 .75 1.162zm-12.39.487l1.525 4.357 7.09-.472 1.748-3.885z"/><path fill="#fbc047" d="M17.726 3.662l.001.001-2.475 5.5a.825.825 0 0 1-.697.484l-7.128.475.412 1.177h7.76a1.65 1.65 0 1 1-1.65 1.65h-7.7A1.65 1.65 0 1 1 4.6 11.3h1.492L2.914 2.224h-1.89a.825.825 0 0 1 0-1.65H3.5a.82.82 0 0 1 .775.554l.003-.001.48 1.373h12.217a.825.825 0 0 1 .75 1.162zm-12.39.487l1.525 4.357 7.09-.472 1.748-3.885z"/></svg>